<svg width="24" height="24" viewBox="0 0 24 24" fill="none" xmlns="http://www.w3.org/2000/svg">
<g id="ant-design:arrow-up-outlined">
<path id="Vector" d="M20.3437 12.7852L12.5648 3.82032C12.4945 3.7392 12.4075 3.67414 12.3099 3.62955C12.2122 3.58497 12.1061 3.56189 11.9988 3.56189C11.8914 3.56189 11.7853 3.58497 11.6877 3.62955C11.59 3.67414 11.5031 3.7392 11.4328 3.82032L3.6562 12.7852C3.6327 12.8122 3.61746 12.8454 3.6123 12.8808C3.60714 12.9163 3.61228 12.9524 3.62709 12.985C3.64191 13.0176 3.66579 13.0453 3.69588 13.0647C3.72597 13.0841 3.76101 13.0945 3.79682 13.0945H5.69526C5.80307 13.0945 5.9062 13.0477 5.97885 12.9656L11.1093 7.05235V20.25C11.1093 20.3531 11.1937 20.4375 11.2968 20.4375H12.7031C12.8062 20.4375 12.8906 20.3531 12.8906 20.25V7.05235L18.021 12.9656C18.0914 13.0477 18.1945 13.0945 18.3046 13.0945H20.2031C20.3624 13.0945 20.4492 12.907 20.3437 12.7852Z" fill="white"/>
</g>
</svg>
